<?xml version="1.0" encoding="UTF-8"?>
<!DOCTYPE svg PUBLIC "-//W3C//DTD SVG 1.1//EN" "http://www.w3.org/Graphics/SVG/1.1/DTD/svg11.dtd">
<svg xmlns="http://www.w3.org/2000/svg" version="1.1" width="784px" height="192px" style="shape-rendering:geometricPrecision; text-rendering:geometricPrecision; image-rendering:optimizeQuality; fill-rule:evenodd; clip-rule:evenodd" xmlns:xlink="http://www.w3.org/1999/xlink">
<g><path style="opacity:0.982" fill="#212121" d="M 88.5,1.5 C 128.87,-1.39729 160.036,13.936 182,47.5C 196.69,75.3973 198.357,104.064 187,133.5C 166.995,173.595 134.495,192.095 89.5,189C 42.6667,180.833 15.1667,153.333 7,106.5C 3.91661,66.502 19.0833,35.6687 52.5,14C 63.8936,7.7037 75.8936,3.53703 88.5,1.5 Z"/></g>
<g><path style="opacity:0.955" fill="#202020" d="M 260.5,38.5 C 269.962,37.6519 277.462,40.9853 283,48.5C 295.667,81.1667 308.333,113.833 321,146.5C 321.624,148.464 321.124,150.131 319.5,151.5C 310.53,152.805 301.53,152.805 292.5,151.5C 279,116.5 265.5,81.5 252,46.5C 251.28,44.8876 251.446,43.3876 252.5,42C 255.158,40.522 257.825,39.3554 260.5,38.5 Z"/></g>
<g><path style="opacity:0.978" fill="#212121" d="M 299.5,38.5 C 332.168,38.3334 364.835,38.5 397.5,39C 399.457,48.2366 400.124,57.7366 399.5,67.5C 365.5,67.5 331.5,67.5 297.5,67.5C 297.334,58.4938 297.5,49.4938 298,40.5C 298.717,39.9558 299.217,39.2891 299.5,38.5 Z"/></g>
<g><path style="opacity:0.975" fill="#212121" d="M 406.5,38.5 C 418.884,38.1866 431.217,38.5199 443.5,39.5C 444.333,52.4872 444.833,65.4872 445,78.5C 445.5,79 446,79.5 446.5,80C 451.489,80.4993 456.489,80.6659 461.5,80.5C 461.5,90.1667 461.5,99.8333 461.5,109.5C 456.821,109.334 452.155,109.501 447.5,110C 446.333,110.5 445.5,111.333 445,112.5C 444.833,125.513 444.333,138.513 443.5,151.5C 431.546,152.646 419.546,152.812 407.5,152C 406.584,151.626 405.75,151.126 405,150.5C 404.333,113.833 404.333,77.1667 405,40.5C 405.717,39.9558 406.217,39.2891 406.5,38.5 Z"/></g>
<g><path style="opacity:0.977" fill="#202020" d="M 466.5,38.5 C 479.171,38.3334 491.838,38.5001 504.5,39C 505,39.5 505.5,40 506,40.5C 506.667,77.1667 506.667,113.833 506,150.5C 505.5,151 505,151.5 504.5,152C 491.838,152.5 479.171,152.667 466.5,152.5C 466.5,114.5 466.5,76.5 466.5,38.5 Z"/></g>
<g><path style="opacity:1" fill="#fd6400" d="M 115.5,54.5 C 115.833,55.5 116.5,56.1667 117.5,56.5C 117.5,57.1667 117.5,57.8333 117.5,58.5C 113.598,63.9599 109.931,69.6266 106.5,75.5C 95.1618,75.3335 83.8284,75.5001 72.5,76C 58.1705,79.1686 48.8372,87.6686 44.5,101.5C 44.3335,90.8281 44.5002,80.1615 45,69.5C 49.5087,54.3246 59.3421,44.4913 74.5,40C 85.1667,39.3333 95.8333,39.3333 106.5,40C 109.887,44.6097 112.887,49.443 115.5,54.5 Z"/></g>
<g><path style="opacity:1" fill="#5d4d37" d="M 117.5,39.5 C 117.5,45.1667 117.5,50.8333 117.5,56.5C 116.5,56.1667 115.833,55.5 115.5,54.5C 116.167,49.5 116.833,44.5 117.5,39.5 Z"/></g>
<g><path style="opacity:1" fill="#f9cc7e" d="M 117.5,39.5 C 137.011,40.1645 149.844,49.8312 156,68.5C 157.689,84.975 157.856,101.308 156.5,117.5C 156.666,107.494 156.5,97.4944 156,87.5C 152.878,102.622 143.712,111.788 128.5,115C 117.172,115.5 105.838,115.667 94.5,115.5C 104.325,114.67 114.325,114.17 124.5,114C 125.333,113.167 126.167,112.333 127,111.5C 128.615,101.6 128.949,91.5998 128,81.5C 125.78,77.3075 122.28,75.6409 117.5,76.5C 117.5,70.5 117.5,64.5 117.5,58.5C 117.5,57.8333 117.5,57.1667 117.5,56.5C 117.5,50.8333 117.5,45.1667 117.5,39.5 Z"/></g>
<g><path style="opacity:0.953" fill="#202020" d="M 246.5,47.5 C 248.284,48.5738 249.451,50.2404 250,52.5C 254.368,63.9371 258.534,75.4371 262.5,87C 260.098,93.8686 257.931,100.702 256,107.5C 261.333,108.167 266.667,108.833 272,109.5C 275.222,118.943 278.722,128.276 282.5,137.5C 269.513,138.333 256.513,138.833 243.5,139C 241.351,142.61 239.684,146.443 238.5,150.5C 237.975,151.192 237.308,151.692 236.5,152C 227.833,152.667 219.167,152.667 210.5,152C 207.094,149.759 206.594,146.925 209,143.5C 221.41,111.432 233.91,79.4318 246.5,47.5 Z"/></g>
<g><path style="opacity:0.869" fill="#ff6400" d="M 648.5,55.5 C 653.5,55.5 658.5,55.5 663.5,55.5C 663.657,56.8734 663.49,58.2068 663,59.5C 657.209,63.6218 651.709,68.1218 646.5,73C 642.848,73.4986 639.182,73.6653 635.5,73.5C 635.351,72.448 635.517,71.448 636,70.5C 640.378,65.6268 644.545,60.6268 648.5,55.5 Z"/></g>
<g><path style="opacity:0.82" fill="#ff6400" d="M 737.5,56.5 C 742.833,56.5 748.167,56.5 753.5,56.5C 753.5,60.5 753.5,64.5 753.5,68.5C 748.167,68.5 742.833,68.5 737.5,68.5C 737.5,64.5 737.5,60.5 737.5,56.5 Z"/></g>
<g><path style="opacity:0.957" fill="#ff6500" d="M 764.5,56.5 C 769.5,56.5 774.5,56.5 779.5,56.5C 779.5,82.1667 779.5,107.833 779.5,133.5C 774.5,133.5 769.5,133.5 764.5,133.5C 764.5,107.833 764.5,82.1667 764.5,56.5 Z"/></g>
<g><path style="opacity:0.92" fill="#ff6400" d="M 533.5,60.5 C 540.833,60.5 548.167,60.5 555.5,60.5C 560.761,77.7851 565.928,95.1185 571,112.5C 576.477,95.2377 581.644,77.9044 586.5,60.5C 593.833,60.5 601.167,60.5 608.5,60.5C 608.5,84.8333 608.5,109.167 608.5,133.5C 603.5,133.5 598.5,133.5 593.5,133.5C 593.667,116.497 593.5,99.4967 593,82.5C 587.726,99.4883 582.559,116.488 577.5,133.5C 573.167,133.5 568.833,133.5 564.5,133.5C 559.441,116.488 554.274,99.4883 549,82.5C 548.5,99.4967 548.333,116.497 548.5,133.5C 543.5,133.5 538.5,133.5 533.5,133.5C 533.5,109.167 533.5,84.8333 533.5,60.5 Z"/></g>
<g><path style="opacity:1" fill="#222121" d="M 117.5,58.5 C 117.5,64.5 117.5,70.5 117.5,76.5C 122.28,75.6409 125.78,77.3075 128,81.5C 128.949,91.5998 128.615,101.6 127,111.5C 126.167,112.333 125.333,113.167 124.5,114C 114.325,114.17 104.325,114.67 94.5,115.5C 91.2484,120.334 88.2484,125.334 85.5,130.5C 84.5119,125.36 84.1786,120.026 84.5,114.5C 82.8333,114.5 81.1667,114.5 79.5,114.5C 76.3579,114.201 74.1912,112.534 73,109.5C 72.0513,99.4002 72.3846,89.4002 74,79.5C 74.8333,78.6667 75.6667,77.8333 76.5,77C 86.6751,76.8302 96.6751,76.3302 106.5,75.5C 109.931,69.6266 113.598,63.9599 117.5,58.5 Z"/></g>
<g><path style="opacity:0.976" fill="#212121" d="M 328.5,72.5 C 341.833,72.5 355.167,72.5 368.5,72.5C 368.833,98.8418 368.5,125.175 367.5,151.5C 355.546,152.646 343.546,152.812 331.5,152C 330.584,151.626 329.75,151.126 329,150.5C 328.5,124.502 328.333,98.5021 328.5,72.5 Z"/></g>
<g><path style="opacity:1" fill="#fcae85" d="M 106.5,75.5 C 96.6751,76.3302 86.6751,76.8302 76.5,77C 75.6667,77.8333 74.8333,78.6667 74,79.5C 72.3846,89.4002 72.0513,99.4002 73,109.5C 74.1912,112.534 76.3579,114.201 79.5,114.5C 80.5676,115.434 81.901,115.768 83.5,115.5C 83.5,121.167 83.5,126.833 83.5,132.5C 83.5,133.167 83.5,133.833 83.5,134.5C 83.5,140.167 83.5,145.833 83.5,151.5C 63.5602,150.737 50.7269,140.737 45,121.5C 44.5004,114.842 44.3337,108.175 44.5,101.5C 48.8372,87.6686 58.1705,79.1686 72.5,76C 83.8284,75.5001 95.1618,75.3335 106.5,75.5 Z"/></g>
<g><path style="opacity:0.948" fill="#ff6400" d="M 637.5,76.5 C 665.621,74.7239 677.121,87.7239 672,115.5C 669.167,125 663,131.167 653.5,134C 630.163,138.365 617.83,128.865 616.5,105.5C 616.279,90.4141 623.279,80.7475 637.5,76.5 Z M 641.5,87.5 C 646.351,86.7841 650.518,88.1175 654,91.5C 658.914,102.22 658.081,112.387 651.5,122C 641.578,126.446 635.412,123.279 633,112.5C 631.769,105.15 632.769,98.1496 636,91.5C 637.5,89.5313 639.333,88.198 641.5,87.5 Z"/></g>
<g><path style="opacity:0.943" fill="#ff6400" d="M 673.5,77.5 C 679.167,77.5 684.833,77.5 690.5,77.5C 693.954,91.3638 698.121,105.03 703,118.5C 707.479,104.899 711.645,91.2325 715.5,77.5C 721.176,77.3339 726.843,77.5006 732.5,78C 725.138,96.2519 718.472,114.752 712.5,133.5C 705.91,133.811 699.41,133.478 693,132.5C 686.394,114.181 679.894,95.8477 673.5,77.5 Z"/></g>
<g><path style="opacity:0.902" fill="#ff6400" d="M 737.5,77.5 C 742.833,77.5 748.167,77.5 753.5,77.5C 753.5,96.1667 753.5,114.833 753.5,133.5C 748.167,133.5 742.833,133.5 737.5,133.5C 737.5,114.833 737.5,96.1667 737.5,77.5 Z"/></g>
<g><path style="opacity:1" fill="#fd9f01" d="M 156.5,117.5 C 153.39,134.779 143.39,145.946 126.5,151C 115.833,151.667 105.167,151.667 94.5,151C 91.1132,146.39 88.1132,141.557 85.5,136.5C 85.1667,135.5 84.5,134.833 83.5,134.5C 83.5,133.833 83.5,133.167 83.5,132.5C 84.5,132.167 85.1667,131.5 85.5,130.5C 88.2484,125.334 91.2484,120.334 94.5,115.5C 105.838,115.667 117.172,115.5 128.5,115C 143.712,111.788 152.878,102.622 156,87.5C 156.5,97.4944 156.666,107.494 156.5,117.5 Z"/></g>
<g><path style="opacity:1" fill="#8f6751" d="M 79.5,114.5 C 81.1667,114.5 82.8333,114.5 84.5,114.5C 84.1786,120.026 84.5119,125.36 85.5,130.5C 85.1667,131.5 84.5,132.167 83.5,132.5C 83.5,126.833 83.5,121.167 83.5,115.5C 81.901,115.768 80.5676,115.434 79.5,114.5 Z"/></g>
<g><path style="opacity:1" fill="#8f6851" d="M 83.5,134.5 C 84.5,134.833 85.1667,135.5 85.5,136.5C 84.8333,141.5 84.1667,146.5 83.5,151.5C 83.5,145.833 83.5,140.167 83.5,134.5 Z"/></g>
</svg>
