<?xml version="1.0" encoding="UTF-8"?>
<svg version="1.1" viewBox="0 0 1540 1352" width="385" height="338" xmlns="http://www.w3.org/2000/svg">
<path transform="translate(721,46)" d="m0 0 349 1 29 2 17 3 21 6 14 5 22 12 15 10 11 9 12 11 12 13 13 18 8 14 11 23 5 15 4 21 2 19 1 540h14l27 3 28 6 21 8 21 10 19 11 19 14 11 9 15 14 7 7 9 11 10 13 13 22 9 19 10 26 6 23 4 24 1 11v32l-2 18-5 27-5 17-6 15-11 25-12 20-9 12-8 10-9 10-6 7-8 7-11 10-18 13-15 9-19 10-25 10-25 6-23 4-16 2h-28l-25-3-26-5-30-10-27-13-18-11-12-9-10-8-10-9-12-12-7-8-10-13-10-15-10-18-9-17v-2h-301l-353-1-22-2-20-5-27-9-16-8-16-10-13-10-10-9-7-6-7-8-12-15-12-19-8-17-10-27-5-25-1-9v-703l3-21 5-19 10-27 10-19 12-17 11-14 13-13 14-11 15-10 19-11 24-9 19-5 23-3 14-1z" fill="#202120"/>
<path transform="translate(826,258)" d="m0 0 21 1 20 3 15 4 21 7 21 9 19 10 19 14 11 9 22 22 14 19 8 13 14 27 8 24 5 22 4 33 1 56v89l-1 55-4 36-5 23-6 19-7 17-9 17-8 12-13 17-18 20-11 9-10 8-20 13-29 14-17 6-22 6-17 3-10 1-144 1-6-8-12-19-12-20-17-28-11-17-5-8v-2h-2v101h-17l-27-4-25-6-18-7-28-14-20-14-9-7-7-7-8-7-11-12-10-13-12-18-9-17-10-24-6-23-4-23-1-8v-51l2-4 4-25 5-17 6-16 8-15 6-10 12-17 16-17 7-7 14-11 16-10 16-8 19-7 14-5 12-3 23-2 14-1-1 2-9 4-9 7-8 9-7 14-1 7v135l2 12 6 12 9 10 10 6 11 4 18 1 7 1 1 99 6-8 16-26 13-22 9-14 13-21 5-8 4-1h142l17-4 10-6 9-9 5-8 4-13v-143l-3-10-7-12-8-8-6-4-14-5-24-1-1-1v-92l1-10h-2l1-2 1-102z" fill="#F2A23E"/>
<path transform="translate(1266,748)" d="m0 0h1v20h14l27 3 28 6 21 8 21 10 19 11 19 14 11 9 15 14 7 7 9 11 10 13 13 22 9 19 10 26 6 23 4 24 1 11v32l-2 18-5 27-5 17-6 15-11 25-12 20-9 12-8 10-9 10-6 7-8 7-11 10-18 13-15 9-19 10-25 10-25 6-23 4-16 2h-28l-25-3-26-5-30-10-27-13-18-11-12-9-10-8-10-9-12-12-7-8-10-13-10-15-10-18-9-17v-2l-3-1h2l-4-13-5-15-4-17-3-20-1-11v-35l2-22 4-21 11-33 14-29 10-16 13-18 7-7 7-8 16-16 10-8 16-12 15-9 19-10 23-9 22-6 33-5 28-3z" fill="#E97533"/>
<path transform="translate(616,259)" d="m0 0h145l8 13 14 22 17 28 12 19 10 18 2 1v-50h1v52 1 102l24 1 16 6 12 11 7 11 3 7 1 5v143l-4 13-7 10-9 9-12 6-14 3h-144l-3 3-11 18-13 21-8 13-12 20-12 19-5 7h-1v-101h-15l-14-2-16-8-9-9-7-12-2-7-1-8v-135l2-10 6-11 11-12 10-7 6-2-36 3-18 5-25 9-16 8-15 9-12 9-13 12-7 7-7 8-12 17-10 17-7 15-7 21-3 15-2 15-2 4-1 35h-1l-1-10v-25l1-13v-152l4-32 5-24 6-18 9-20 9-17 12-17 8-10 12-13 9-9 8-7 18-13 13-8 19-10 24-9 24-7 12-2z" fill="#E97533"/>
<path transform="translate(822,364)" d="m0 0h2l1 9v92l24 1 16 6 12 11 7 11 3 7 1 5v143l-4 13-7 10-9 9-12 6-14 3h-144l-3 3-11 18-13 21-8 13-12 20-12 19-5 7h-1v-101h-15l-14-2-16-8-9-9-7-12-2-7-1-8v-135l2-10 6-11 11-12 10-7 10-3 153-1 6-10 9-14 21-35 11-17 13-23z" fill="#202120"/>
<path transform="translate(826,258)" d="m0 0 21 1 20 3 15 4 21 7 21 9 19 10 19 14 11 9 22 22 14 19 8 13 14 27 8 24 5 22 4 33v19l-2 26-3 9-5 22-6 20-10 19-10 16-10 13-9 11-9 9-14 11-13 9-14 8-21 9-18 6-19 4-24 2h-7l2-2 12-6 10-10 5-8 4-13v-143l-3-10-7-12-8-8-6-4-14-5-24-1-1-1v-92l1-10h-2l1-2 1-102z" fill="#FCCF91"/>
<path transform="translate(601,466)" d="m0 0 4 1-12 6-12 11-7 11-3 7-1 7v135l2 12 6 12 9 10 10 6 11 4 18 1 7 1v206h-17l-27-4-25-6-18-7-28-14-20-14-9-7-7-7-8-7-11-12-10-13-12-18-9-17-10-24-6-23-4-23-1-8v-51l2-4 4-25 5-17 6-16 8-15 6-10 12-17 16-17 7-7 14-11 16-10 16-8 19-7 14-5 12-3 23-2z" fill="#F3B490"/>
<path transform="translate(1176,908)" d="m0 0 78 1 5 4 1 2v9l-4 5-5 2-72 1v118l1 49 166-1 1-69 3-6 6-5h8l6 8 1 13v54l-1 14-5 8-7 6-5 2h-143l-38-1-6-3-8-9-3-8v-173l2-8 6-7 8-5z" fill="#F6DFCE"/>
<path transform="translate(1284,908)" d="m0 0h60l21 1 4 4 2 13v66l-3 7-7 3-7-1-5-5-2-5-1-35-1-3-5 2-66 66h-2l-2 4-20 20h-2l-2 4-7 6h-6l-7-6-2-5 1-6 9-10 8-7 7-8 7-7h2l2-4 8-8 6-5 7-8 9-8 6-7 8-7 9-10 14-14v-3l-42-1-6-4-2-5v-7l3-5z" fill="#F6DFCE"/>
<path transform="translate(1176,908)" d="m0 0 78 1 5 4 1 2v9l-4 5-5 2-72 1v118l1 49 166-1 1-69 3-6 6-5h8l6 8 1 13v54l-1 14-5 8-7 6-5 2h-143l-38-1-6-3-8-9-3-8v-173l2-8 6-7 8-5zm-5 3-6 4-6 8-1 4v88l1 88 4 8 8 8 4 1h48l124-1 10-3 8-9 2-7 1-50v-21l-3-6-2-2-7 1-3 3-2 7v59l-2 9-5 2-50 1-114-2-2-1-1-3v-161l1-6 62-1h9l7-2 2-4v-8l-4-4z" fill="#F5B991"/>
<path transform="translate(1154,923)" d="m0 0h2v179l3 8 8 9 5 2 38 1h143l8-4 6-7 2-4 1-14v-54l-1-13-5-7h-8l-6 5-2 5-1 67-3 3h-164l-1-2-1-47v-118l1-1h72v1l-70 1v97l1 57 1 7 1 1h155l3-2 1-11v-50l3-9 5-6 9-3 6 2 1 3 3 1 4 11 1 49v29l-1 5h-2l-1 4-3 3h-3v2l-8 3-13 1h-89l-64-1h-15l-12-3-1-3-4-2-4-6-3-12v-106l1-67z" fill="#EF8549"/>
<path transform="translate(1289,915)" d="m0 0 66 1 7 3 2 7v26l-2 15-2 6h-2l-3-9-1-15-2-6-6-1-10 5-2 4-27 27-2 3h-2v3l-8 7-10 10-5 4-5 5-8 7-1 2h-2l-1 3-25 25-3 1-5-5 2-6 10-8 5-5 3-4h2v-2l8-7 7-7 1-2h2l2-4h2l2-4 23-23 8-7 10-10 3-4h2l1-3 8-7 5-6v-6l-3-2-9-1h-38l-3-3 1-6z" fill="#FDF3EB"/>
<path transform="translate(1177,913)" d="m0 0 48 1h17l12-1 2 3v7l-2 3-71 1-6 2-1 1-1 51-2 68-1 21-1 8-2-1-2-7-2-41-3-49v-54l3-7 7-5z" fill="#FDF3EB"/>
<path transform="translate(1356,902)" d="m0 0 10 2 6 7 3 6v73l-3 9-7 6-9 2-5-3v-2h-3l-4-11-2-21-7 1-8 4-11 9-6 7-7 6-3 3-3 5-7 7-10 8-5 6-4 7-5 5-4 1v3l-4 1v2h-2l-2 4-4 4-7 4-4 2-9-1v-2l-4-2-3-7v-8l6-9 9-8 5-6 8-7 31-31 4-2 2-4 7-8 7-6 1-2h2l2-4 11-10 1-2h2l2-4 1-3h-35l-7-2-5-5-1-2v-11l4-6 6-2 22-1 46-1zm-72 6-5 3-2 4v7l3 6 5 3 42 1v3l-21 21-4 5-8 7-9 10-8 7-4 5-8 7-7 7v2l-4 2-11 11-5 6-8 7-6 8 1 6 3 5 5 4h6l9-8v-2l4-2 20-20v-2l3-1 66-66 4-1 1 3 1 35 4 8 6 3 8-1 5-5 1-4v-66l-2-13-4-4-21-1z" fill="#EF8549"/>
<path transform="translate(1284,908)" d="m0 0h60l21 1 4 4 2 13v66l-3 7-7 3-7-1-5-5-2-5-1-35-1-3-5 2-66 66h-2l-2 4-20 20h-2l-2 4-7 6h-6l-7-6-2-5 1-6 9-10 8-7 7-8 7-7h2l2-4 8-8 6-5 7-8 9-8 6-7 8-7 9-10 14-14v-3l-42-1-6-4-2-5v-7l3-5zm2 3-5 2-1 1v10l4 4 44 1 3 1-1 5-6 6v2l-4 2-7 8-15 15-7 6-5 6-7 6-7 8-6 5-7 8-10 9-7 8-6 5-4 4v2h-2l-3 4 1 9 4 3h7l8-7 10-10v-2l4-2 4-5 7-6 5-6 4-3v-2l4-2v-2l4-2 35-35 5-6 7-6 4-4v-2l8-1 1 4 2 38 4 6 1 1h7l4-4 1-3v-67l-2-9-3-2-25-1z" fill="#F5BA91"/>
<path transform="translate(1284,928)" d="m0 0h44l4 2-1 5-7 8-5 5-3 1-2 4-21 21h-2l-2 4-9 8-2 3h-2l-2 4-7 6-7 8-10 9-7 8-5 5h-2l-2 4h-2v2h-2l-2 4 1 9 3 2h7l8-7 14-14 4-5h2l2-4 4-4h2l2-4 7-6 5-5 6-5-2 4-16 16-3 5h-2l-2 4-20 20h-2l-2 4-7 6h-6l-7-6-2-5 1-6 9-10 8-7 7-8 7-7h2l2-4 8-8 6-5 7-8 9-8 6-7 8-7 9-10 14-14 2-1 1-3-19-1h-19l-8-1z" fill="#F8C291"/>
<path transform="translate(1179,931)" d="m0 0h72v1l-70 1v160l1 3 2 1h158l2-2 1-27v-37l2-7 5-5 2 1-5 6-1 3-1 67-3 3h-164l-1-2-1-47v-118z" fill="#F19643"/>
<path transform="translate(1338,906)" d="m0 0h23l6 2 4 6 1 3v77l-4 7-4 2h-10l-5-4-3-5-1-7-1-26-1-4-4 2-13 12-1 2h-2v2h-2l-2 4-8 7-16 16-4 5-8 7-15 15-3 4h-2v2h-2v2h-2l-2 4-4 2v2h-2l-2 4-7 6-3-1 8-7 24-24 5-6 8-7 57-57 4-1 2 4 1 35 4 8 5 2 8-1 4-4 1-4v-66l-2-13-3-3-21-1-59-1v-1z" fill="#F3A33F"/>
<path transform="translate(1155,923)" d="m0 0h1v179l3 8 8 9 5 2 38 1h143l8-4 6-7 2-4 1-14v-67h1l1 6v74l-3 7-5 6-8 5-101 1-81-1-10-4-8-10-2-7v-175z" fill="#F3A33F"/>
<path transform="translate(1176,936)" d="m0 0h1l1 160 1 3 2 1 82 1h61l24-1 1-5v-65l4-8 3-2h7l-4 2-5 3-2 7v59l-2 9-6 3-50 1-114-2-3-2-1-3z" fill="#FDD092"/>
<path transform="translate(1369,1039)" d="m0 0h2v54l-1 14-5 8-7 6-5 2h-143l-38-1v-2h171l13-2 8-7 3-7 1-14z" fill="#F4B591"/>
<path transform="translate(1356,902)" d="m0 0 10 2 6 7 3 6v73l-3 9-7 6-9 2-5-3v-2h-3l-4-11v-4h2l2 9 4 5 2 1h10l4-2 3-6v-77l-3-6-1-3-6-1h-23l-53 1-7 4 2-5 6-2 22-1 46-1z" fill="#EF8548"/>
<path transform="translate(1168,1103)" d="m0 0 5 1 7 3 7 1 22 1 2-1h31v2h12l-3 2-9 2-48 1-10 1-9-2-5-5-2-3z" fill="#FDF3EB"/>
<path transform="translate(1284,908)" d="m0 0h60l21 1 4 4 2 13v66h-2l-1-71-2-8-9-2-71-1v2l-5 2v10l1 3h2v2h32l12 1 2 1-1 4-2-3-42-1-6-4-2-5v-7l3-5z" fill="#F4B591"/>
<path transform="translate(1368,1029)" d="m0 0h1v61l-1 14-4 8-8 7-13 2h-168v-1l48-1 124-1 10-3 7-8 2-7 1-50z" fill="#FDD092"/>
<path transform="translate(1277,912)" d="m0 0 1 3v7l3 6 4 2 42 1 1 4-21 21-5 6-8 7-9 10-8 7-4 5h-2l-1 3-8 7-4 5-8 7-12 13-8 7-5 7 1 6 3 5 4 3 6 1v1h-7l-6-4-3-5v-8l6-9 9-8 5-6 8-7 31-31 4-2 2-4 7-8 7-6 1-2h2l2-4 11-10 1-2h2l2-4 1-3h-35l-7-2-5-5-1-2v-11z" fill="#F3A33F"/>
<path transform="translate(1352,1019)" d="m0 0 2 1-5 6-1 3-1 67-3 3h-164l-1-6h2l1 3 2 1h158l2-2 1-27v-37l2-7z" fill="#F3A33F"/>
<path transform="translate(1286,910)" d="m0 0h71l9 2 2 3 1 6v71l-3 6-2 1h-8l-5-4-2-7-1-32-1-6-5 1-8 8h-2l1-3 6-5 3-3 6-1 2 5 2 38 4 6h7l3-3 1-3v-67l-2-9-2-1-25-1-52-1z" fill="#FDD092"/>
<path transform="translate(1237,905)" d="m0 0 15 1 6 3 4 5v10l-4 6-1 1h-6l3-2 5-5v-9l-5-5-82-1 3-3h16z" fill="#F08F45"/>
<path transform="translate(1172,910)" d="m0 0h84l4 5v9l-4 5-5 2h-54l-19-1v-1l62-1h9l7-2 1-3v-8l-3-3-82-1z" fill="#F9C491"/>
<path transform="translate(1505,964)" d="m0 0h1l4 24 1 11v32l-2 18-3 18h-1l-1-9 1-10 1-4 2-16-1-39-3-9z" fill="#F19554"/>
<path transform="translate(1294,996)" d="m0 0v3l-17 17-3 5h-2l-2 4-20 20h-2l-2 4-7 6h-6l-7-6 1-3v2l5 2h7l8-7 14-14 4-5h2l2-4 4-4h2l2-4 7-6 5-5z" fill="#F6BD91"/>
<path transform="translate(574,489)" d="m0 0h2l-2 6-5 12-1 27-1 10-2-2-2-6v-22l1-11z" fill="#FCCD90"/>
<path transform="translate(1284,928)" d="m0 0h44l4 2-1 5-7 8-5 5-3 1-2 4-16 16-2-1 4-6 5-4 7-8 15-15 2-1 1-3-19-1h-19l-8-1z" fill="#F7BE91"/>
<path transform="translate(1456,860)" d="m0 0 5 5 10 14 11 19 8 17 2 5-1 3-7-12-2-9h-2l-4-6-4-8-5-8-6-9v-2h-2l-3-5z" fill="#EF8A4C"/>
<path transform="translate(568,649)" d="m0 0h2l4 12 7 11 7 7 18 9v2l-6-1-6-3-6-2-6-4-7-8-1-4h-2l-4-11z" fill="#FAC489"/>
<path transform="translate(1359,1014)" d="m0 0 7 2 1 3 3 1 1 5-2 1-5-7h-8l-5 2-4 5-1 5v44l-1 7h-1l-1-13v-37l3-9 5-6z" fill="#EF8549"/>
<path transform="translate(1344,947)" d="m0 0 5 1 1 4 2 38 4 6h7l5-4-1 5-3 2h-8l-5-4-2-7-1-32-1-6-5 1-8 8h-2l1-3 6-5 3-3z" fill="#FDD092"/>
<path transform="translate(1283,932)" d="m0 0 41 1-1 4-2 3h-2l-2 4-9 8v-3l5-5 2-3h2l-1-6h-14l-16-1z" fill="#EF8549"/>
<path transform="translate(1296,966)" d="m0 0 2 1-5 7h-2l-2 4-9 8-2 3h-2l-2 4-7 6-8 7v-3l9-9 6-5 7-8 9-8z" fill="#F7BE91"/>
<path transform="translate(1294,996)" d="m0 0v3l-17 17-3 5-5 3-15 15-2-1 5-6 5-4 3-4h2l2-4 4-4h2l2-4 7-6 5-5z" fill="#F9C591"/>
<path transform="translate(1510,1019)" d="m0 0h1v12l-2 18-3 18h-1l-1-9 1-10 1-4 2-14 1-1z" fill="#F08E4D"/>
<path transform="translate(1284,928)" d="m0 0h44l4 2v3h-2v-2l-19-1h-19l-8-1z" fill="#FDD092"/>
<path transform="translate(412,631)" d="m0 0h2v6l-2 4-1 35h-1l-1-10v-25l1-6h2z" fill="#EF8549"/>
<path transform="translate(1344,947)" d="m0 0 5 1 1 4v22h-1l-1-18-1-6-5 1-8 8h-2l1-3 6-5 3-3z" fill="#FCCD91"/>
<path transform="translate(1359,1014)" d="m0 0 7 2 1 3 3 1 1 5-2 1-5-7h-10l2-4z" fill="#F08F45"/>
<path transform="translate(1508 1e3)" d="m0 0h2l1 10v9l-1 10-2-1z" fill="#EF8947"/>
<path transform="translate(1256,908)" d="m0 0 6 6v10l-4 6-1 1h-6l3-2 5-5v-9l-5-6z" fill="#F09144"/>
<path transform="translate(539,873)" d="m0 0 10 2 5 4 4 2v1l-8-1-11-6z" fill="#F9C087"/>
<path transform="translate(1356,1018)" d="m0 0h8l6 8v13h-1v-10h-2l-3-6-1-3-9 1z" fill="#F5BA91"/>
<path transform="translate(1235,1029)" d="m0 0v3l-3 1v2h-2l-2 4v9l-1-2h-2l-1-6 6-8z" fill="#F9C691"/>
<path transform="translate(1315,949)" d="m0 0v3l-17 17-2-1 4-6 10-8z" fill="#FBCA91"/>
<path transform="translate(1265,999)" d="m0 0v3l-8 8-7 6-3-1 9-9 5-3z" fill="#F9C491"/>
<path transform="translate(1482,903)" d="m0 0 3 1 7 16-1 3-7-12z" fill="#EF8C4E"/>
<path transform="translate(1256,911)" d="m0 0 4 4v9l-4 5-5 1-2-2 7-2 1-3v-8z" fill="#F7BF91"/>
<path transform="translate(444,787)" d="m0 0 4 2 3 2-1 5-4-1-2-3z" fill="#FBC98E"/>
<path transform="translate(1296,966)" d="m0 0 2 1-5 7h-2l-2 4-3 3-2-1 9-11z" fill="#F8C291"/>
<path transform="translate(871,677)" d="m0 0 2 1-3 4-1 4h-8v-2l9-6z" fill="#F5D3BB"/>
<path transform="translate(1510,1019)" d="m0 0h1v12l-1 12-2-3v-10l1-1z" fill="#F29D65"/>
<path transform="translate(1175,906)" d="m0 0h15l1 2-19 1z" fill="#EF8847"/>
<path transform="translate(471,822)" d="m0 0 4 1 2 2 2 1v4l-5-2-3-4z" fill="#FBCC91"/>
<path transform="translate(601,466)" d="m0 0 4 1-10 5h-3l1-3 3-2z" fill="#F7BB8A"/>
<path transform="translate(1330,933)" d="m0 0v3l-6 7h-2l1-5z" fill="#FAC791"/>
<path transform="translate(1167,911)" d="m0 0 4 1-6 4-5 5-1-3z" fill="#F8C291"/>
<path transform="translate(412,631)" d="m0 0h2v6l-2 4h-2v-6h2z" fill="#EF8D45"/>
<path transform="translate(1279,914)" d="m0 0h1l1 10 1 3 2 1h-4l-2-5z" fill="#F8C391"/>
</svg>
